<svg width="80" height="80" viewBox="0 0 683 683" fill="none" xmlns="http://www.w3.org/2000/svg">
<mask id="path-1-outside-1_70_111" maskUnits="userSpaceOnUse" x="11" y="114" width="661" height="455" fill="black">
<rect fill="white" x="11" y="114" width="661" height="455"/>
<path d="M517.6 116.667C504 119.2 487.733 127.333 477.867 136.4L469.733 143.867L461.333 140.4C454 137.467 451.333 137.067 441.467 137.6C427.333 138.267 417.333 142.4 408.8 151.333C396.533 163.867 393.467 175.867 393.333 210.933V230.667H339.2C301.467 230.667 283.333 231.2 279.733 232.267C272.933 234.267 263.467 242.667 260.533 249.333L258.267 254.4L227.467 254.933C196.933 255.333 196.667 255.333 189.067 259.067C176.8 265.067 169.867 274.667 162.133 296.133C160.133 301.867 159.2 302.667 150.267 306.8C142.133 310.533 138.8 311.333 128.267 311.733L116 312.267V298.8C116 278.4 120.4 280 64 280C19.0667 280 17.2 280.133 14.6667 282.667C12 285.333 12 287.067 12 397.733C12 505.067 12.1333 510.4 14.4 512.4C16.6667 514.4 22 514.667 64.2667 514.667C120.133 514.667 116 515.867 116 498.933V488H127.2C140 488 157.333 490.8 168.133 494.533C176 497.2 181.333 499.733 199.2 509.067C211.467 515.467 227.333 519.467 245.467 520.8L258.267 521.733L259.867 526.267C262.133 532.4 268.533 539.6 275.2 543.067C280.533 545.867 282 546 336.933 546.4L393.2 546.8L394 550.8C395.2 556 402.133 563.867 407.6 566.133C411.067 567.733 434 568 531.6 568C645.333 568 651.6 567.867 656.8 565.467C663.067 562.533 667.467 557.6 669.333 550.8C670.4 547.6 670.667 491.467 670.4 374.667C670 213.2 669.867 202.933 667.6 197.2C664.533 189.467 657.733 181.333 650.133 176.533C645.467 173.6 644.133 171.867 643.467 168C641.6 155.867 629.2 140.267 616.533 134.133C608.267 130 595.867 128 587.067 129.333C581.467 130.267 579.867 129.733 571.467 125.2C554.8 116.4 535.333 113.2 517.6 116.667ZM545.467 132.533C554.533 134.533 565.867 139.6 572 144.267C574.933 146.533 576.533 146.8 584 145.867C596.4 144.533 602.133 145.067 608.8 148.267C616 151.6 624.933 161.333 626.667 167.867C627.333 170.533 628.667 175.067 629.333 178C630.533 182.4 632.133 184.267 638.933 188.667C648.8 195.067 651.6 198.667 653.2 206.933L654.267 213.333H626.133C603.867 213.333 597.333 213.733 595.2 215.2C592.8 216.933 592.667 219.467 592 251.333L591.333 285.6L586.933 289.467C583.733 292.4 581.333 293.333 577.333 293.333C573.333 293.333 570.933 292.4 567.733 289.467L563.333 285.6L562.667 251.333C562 219.467 561.867 216.933 559.467 215.2C557.2 213.6 544.533 213.333 482.933 213.333H408.933L409.6 196C410.267 180.667 410.8 177.867 414 171.2C420.133 158.667 431.2 152.667 446 153.6C452.8 154 455.867 155.067 462.4 159.067C466.8 161.733 471.067 164 471.733 164C472.533 164 478.133 159.067 484.267 152.933C496.533 140.667 504.8 135.733 518.8 132.8C529.867 130.267 534.667 130.267 545.467 132.533ZM546.667 253.333V277.333H510.667C476.4 277.333 474.533 277.467 472 280C470.533 281.467 469.333 283.867 469.333 285.333C469.333 286.8 470.533 289.2 472 290.667C474.533 293.2 476.4 293.333 512.4 293.333H550L553.867 298.133C559.6 305.333 570.4 309.867 579.6 308.933C588 308 597.2 303.2 601.333 297.333L604.133 293.333H629.467H654.667V388V482.667H532H409.333V388V293.333H422C432.933 293.333 435.067 292.933 437.333 290.667C438.8 289.2 440 286.8 440 285.333C440 283.867 438.8 281.467 437.333 280C435.067 277.733 432.933 277.333 422 277.333H409.333V253.333V229.333H478H546.667V253.333ZM654.667 253.333V277.333H631.333H608V253.333V229.333H631.333H654.667V253.333ZM393.333 253.333V260H349.733C300.933 260 299.733 260.267 293.733 269.2C290.8 273.467 290.667 275.067 290.667 294.8V316H281.867H273.2L273.6 286.133C274 256.267 274 256.133 277.333 252.667C279.2 250.667 281.867 248.533 283.333 248C284.8 247.333 310.133 246.8 339.733 246.8L393.333 246.667V253.333ZM257.333 291.6L257.2 312.667L254.4 307.333C252.933 304.4 250.933 301.6 250.133 301.067C247.733 299.467 243.333 299.867 240.667 301.867C235.467 305.733 239.733 320.4 247.867 326.267C254.933 331.6 259.067 332 300.133 332C322.667 332 341.333 332.533 343.2 333.333C347.2 334.8 352 342 352 346.267C352 350.8 349.333 355.733 345.467 358.267C342.533 360.267 338.133 360.667 316.667 361.067C295.867 361.467 290.933 361.867 289.067 363.6C286 366.267 286 371.733 288.933 374.933C290.8 377.067 293.467 377.333 315.2 377.333C336.8 377.333 339.733 377.6 343.6 380C354.533 386.667 354.533 401.333 343.6 408C339.733 410.4 336.8 410.667 316 410.667C289.867 410.667 286.667 411.6 286.667 418.533C286.667 425.333 288.8 426 316.8 426.667L342.667 427.333L346.933 431.733C350.667 435.467 351.333 436.933 351.333 442.667C351.333 448.4 350.667 449.867 346.933 453.6L342.667 458L317.6 458.4C297.067 458.8 292.267 459.2 290.4 460.933C287.333 463.6 287.333 469.067 290.267 472.267C292.133 474.4 294.667 474.667 310.267 474.667C329.333 474.667 333.867 475.733 337.867 481.6C340.8 485.867 340.533 494.933 337.333 498.933C332.267 505.467 330.267 505.6 280.4 504.933C225.467 504.133 225.467 504.267 196.667 490C171.733 477.467 157.2 473.467 133.067 472.4L116 471.6V427.733C116 385.733 115.867 383.867 113.333 381.333C111.867 379.867 109.467 378.667 108 378.667C106.533 378.667 104.133 379.867 102.667 381.333C100.133 383.867 100 385.733 100 441.333V498.667H64H28V397.333V296H64H100V320.667C100 343.6 100.133 345.467 102.667 348C104.133 349.467 106.533 350.667 108 350.667C113.333 350.667 116 346 116 336.667V328H126.4C139.067 328 149.067 325.467 161.333 319.333C171.467 314.133 174.4 310.8 178.133 299.333C181.333 289.733 185.867 281.2 189.733 277.6C196 271.733 201.467 270.8 230.4 270.667H257.333V291.6ZM328.667 278.933C326.267 286.8 320.533 295.067 315.333 298.133C312.267 299.867 309.067 301.333 308.267 301.333C306.533 301.333 305.867 278.533 307.6 276.933C308 276.4 313.2 276 318.933 276C329.333 276 329.467 276 328.667 278.933ZM393.333 388.667V501.333H374H354.667L355.6 497.6C357.333 491.467 356.4 481.867 353.2 475.867C351.467 472.267 350.933 469.867 351.733 469.6C355.067 468.533 360.267 463.467 363.333 458C369.867 446.933 368.933 432.933 360.8 422.4L357.467 418L361.333 412.933C366 406.667 368.667 396.4 367.467 389.067C366.533 383.067 362.533 374.667 359.6 372.133C357.867 370.8 358.133 369.6 362 363.867C368.933 353.733 369.6 343.067 364 332C358.133 320.667 348.667 316.133 330 315.867C322.667 315.867 317.6 315.467 318.667 315.067C329.2 311.067 339.733 298 343.467 284.267L345.733 276H369.6H393.333V388.667ZM654.667 522.933C654.667 543.6 654.4 547.467 652.4 549.6C650.4 551.867 644.933 552 532.267 552C424.267 552 414 551.867 411.733 549.733C409.6 547.867 409.333 545.067 409.333 523.067V498.667H532H654.667V522.933ZM393.333 524V530.667H339.467C286 530.667 285.733 530.667 281.333 527.6C272.533 521.733 273.733 521.333 302.933 521.2C322 521.2 331.333 520.667 334.667 519.467C337.867 518.133 347.467 517.6 366.4 517.467L393.333 517.333V524Z"/>
</mask>
<path d="M517.6 116.667C504 119.2 487.733 127.333 477.867 136.4L469.733 143.867L461.333 140.4C454 137.467 451.333 137.067 441.467 137.6C427.333 138.267 417.333 142.4 408.8 151.333C396.533 163.867 393.467 175.867 393.333 210.933V230.667H339.2C301.467 230.667 283.333 231.2 279.733 232.267C272.933 234.267 263.467 242.667 260.533 249.333L258.267 254.4L227.467 254.933C196.933 255.333 196.667 255.333 189.067 259.067C176.8 265.067 169.867 274.667 162.133 296.133C160.133 301.867 159.2 302.667 150.267 306.8C142.133 310.533 138.8 311.333 128.267 311.733L116 312.267V298.8C116 278.4 120.4 280 64 280C19.0667 280 17.2 280.133 14.6667 282.667C12 285.333 12 287.067 12 397.733C12 505.067 12.1333 510.4 14.4 512.4C16.6667 514.4 22 514.667 64.2667 514.667C120.133 514.667 116 515.867 116 498.933V488H127.2C140 488 157.333 490.8 168.133 494.533C176 497.2 181.333 499.733 199.2 509.067C211.467 515.467 227.333 519.467 245.467 520.8L258.267 521.733L259.867 526.267C262.133 532.4 268.533 539.6 275.2 543.067C280.533 545.867 282 546 336.933 546.4L393.2 546.8L394 550.8C395.2 556 402.133 563.867 407.6 566.133C411.067 567.733 434 568 531.6 568C645.333 568 651.6 567.867 656.8 565.467C663.067 562.533 667.467 557.6 669.333 550.8C670.4 547.6 670.667 491.467 670.4 374.667C670 213.2 669.867 202.933 667.6 197.2C664.533 189.467 657.733 181.333 650.133 176.533C645.467 173.6 644.133 171.867 643.467 168C641.6 155.867 629.2 140.267 616.533 134.133C608.267 130 595.867 128 587.067 129.333C581.467 130.267 579.867 129.733 571.467 125.2C554.8 116.4 535.333 113.2 517.6 116.667ZM545.467 132.533C554.533 134.533 565.867 139.6 572 144.267C574.933 146.533 576.533 146.8 584 145.867C596.4 144.533 602.133 145.067 608.8 148.267C616 151.6 624.933 161.333 626.667 167.867C627.333 170.533 628.667 175.067 629.333 178C630.533 182.4 632.133 184.267 638.933 188.667C648.8 195.067 651.6 198.667 653.2 206.933L654.267 213.333H626.133C603.867 213.333 597.333 213.733 595.2 215.2C592.8 216.933 592.667 219.467 592 251.333L591.333 285.6L586.933 289.467C583.733 292.4 581.333 293.333 577.333 293.333C573.333 293.333 570.933 292.4 567.733 289.467L563.333 285.6L562.667 251.333C562 219.467 561.867 216.933 559.467 215.2C557.2 213.6 544.533 213.333 482.933 213.333H408.933L409.6 196C410.267 180.667 410.8 177.867 414 171.2C420.133 158.667 431.2 152.667 446 153.6C452.8 154 455.867 155.067 462.4 159.067C466.8 161.733 471.067 164 471.733 164C472.533 164 478.133 159.067 484.267 152.933C496.533 140.667 504.8 135.733 518.8 132.8C529.867 130.267 534.667 130.267 545.467 132.533ZM546.667 253.333V277.333H510.667C476.4 277.333 474.533 277.467 472 280C470.533 281.467 469.333 283.867 469.333 285.333C469.333 286.8 470.533 289.2 472 290.667C474.533 293.2 476.4 293.333 512.4 293.333H550L553.867 298.133C559.6 305.333 570.4 309.867 579.6 308.933C588 308 597.2 303.2 601.333 297.333L604.133 293.333H629.467H654.667V388V482.667H532H409.333V388V293.333H422C432.933 293.333 435.067 292.933 437.333 290.667C438.8 289.2 440 286.8 440 285.333C440 283.867 438.8 281.467 437.333 280C435.067 277.733 432.933 277.333 422 277.333H409.333V253.333V229.333H478H546.667V253.333ZM654.667 253.333V277.333H631.333H608V253.333V229.333H631.333H654.667V253.333ZM393.333 253.333V260H349.733C300.933 260 299.733 260.267 293.733 269.2C290.8 273.467 290.667 275.067 290.667 294.8V316H281.867H273.2L273.6 286.133C274 256.267 274 256.133 277.333 252.667C279.2 250.667 281.867 248.533 283.333 248C284.8 247.333 310.133 246.8 339.733 246.8L393.333 246.667V253.333ZM257.333 291.6L257.2 312.667L254.4 307.333C252.933 304.4 250.933 301.6 250.133 301.067C247.733 299.467 243.333 299.867 240.667 301.867C235.467 305.733 239.733 320.4 247.867 326.267C254.933 331.6 259.067 332 300.133 332C322.667 332 341.333 332.533 343.2 333.333C347.2 334.8 352 342 352 346.267C352 350.8 349.333 355.733 345.467 358.267C342.533 360.267 338.133 360.667 316.667 361.067C295.867 361.467 290.933 361.867 289.067 363.6C286 366.267 286 371.733 288.933 374.933C290.8 377.067 293.467 377.333 315.2 377.333C336.8 377.333 339.733 377.6 343.6 380C354.533 386.667 354.533 401.333 343.6 408C339.733 410.4 336.8 410.667 316 410.667C289.867 410.667 286.667 411.6 286.667 418.533C286.667 425.333 288.8 426 316.8 426.667L342.667 427.333L346.933 431.733C350.667 435.467 351.333 436.933 351.333 442.667C351.333 448.4 350.667 449.867 346.933 453.6L342.667 458L317.6 458.4C297.067 458.8 292.267 459.2 290.4 460.933C287.333 463.6 287.333 469.067 290.267 472.267C292.133 474.4 294.667 474.667 310.267 474.667C329.333 474.667 333.867 475.733 337.867 481.6C340.8 485.867 340.533 494.933 337.333 498.933C332.267 505.467 330.267 505.6 280.4 504.933C225.467 504.133 225.467 504.267 196.667 490C171.733 477.467 157.2 473.467 133.067 472.4L116 471.6V427.733C116 385.733 115.867 383.867 113.333 381.333C111.867 379.867 109.467 378.667 108 378.667C106.533 378.667 104.133 379.867 102.667 381.333C100.133 383.867 100 385.733 100 441.333V498.667H64H28V397.333V296H64H100V320.667C100 343.6 100.133 345.467 102.667 348C104.133 349.467 106.533 350.667 108 350.667C113.333 350.667 116 346 116 336.667V328H126.4C139.067 328 149.067 325.467 161.333 319.333C171.467 314.133 174.4 310.8 178.133 299.333C181.333 289.733 185.867 281.2 189.733 277.6C196 271.733 201.467 270.8 230.4 270.667H257.333V291.6ZM328.667 278.933C326.267 286.8 320.533 295.067 315.333 298.133C312.267 299.867 309.067 301.333 308.267 301.333C306.533 301.333 305.867 278.533 307.6 276.933C308 276.4 313.2 276 318.933 276C329.333 276 329.467 276 328.667 278.933ZM393.333 388.667V501.333H374H354.667L355.6 497.6C357.333 491.467 356.4 481.867 353.2 475.867C351.467 472.267 350.933 469.867 351.733 469.6C355.067 468.533 360.267 463.467 363.333 458C369.867 446.933 368.933 432.933 360.8 422.4L357.467 418L361.333 412.933C366 406.667 368.667 396.4 367.467 389.067C366.533 383.067 362.533 374.667 359.6 372.133C357.867 370.8 358.133 369.6 362 363.867C368.933 353.733 369.6 343.067 364 332C358.133 320.667 348.667 316.133 330 315.867C322.667 315.867 317.6 315.467 318.667 315.067C329.2 311.067 339.733 298 343.467 284.267L345.733 276H369.6H393.333V388.667ZM654.667 522.933C654.667 543.6 654.4 547.467 652.4 549.6C650.4 551.867 644.933 552 532.267 552C424.267 552 414 551.867 411.733 549.733C409.6 547.867 409.333 545.067 409.333 523.067V498.667H532H654.667V522.933ZM393.333 524V530.667H339.467C286 530.667 285.733 530.667 281.333 527.6C272.533 521.733 273.733 521.333 302.933 521.2C322 521.2 331.333 520.667 334.667 519.467C337.867 518.133 347.467 517.6 366.4 517.467L393.333 517.333V524Z" fill="#441901"/>
<path d="M517.6 116.667C504 119.2 487.733 127.333 477.867 136.4L469.733 143.867L461.333 140.4C454 137.467 451.333 137.067 441.467 137.6C427.333 138.267 417.333 142.4 408.8 151.333C396.533 163.867 393.467 175.867 393.333 210.933V230.667H339.2C301.467 230.667 283.333 231.2 279.733 232.267C272.933 234.267 263.467 242.667 260.533 249.333L258.267 254.4L227.467 254.933C196.933 255.333 196.667 255.333 189.067 259.067C176.8 265.067 169.867 274.667 162.133 296.133C160.133 301.867 159.2 302.667 150.267 306.8C142.133 310.533 138.8 311.333 128.267 311.733L116 312.267V298.8C116 278.4 120.4 280 64 280C19.0667 280 17.2 280.133 14.6667 282.667C12 285.333 12 287.067 12 397.733C12 505.067 12.1333 510.4 14.4 512.4C16.6667 514.4 22 514.667 64.2667 514.667C120.133 514.667 116 515.867 116 498.933V488H127.2C140 488 157.333 490.8 168.133 494.533C176 497.2 181.333 499.733 199.2 509.067C211.467 515.467 227.333 519.467 245.467 520.8L258.267 521.733L259.867 526.267C262.133 532.4 268.533 539.6 275.2 543.067C280.533 545.867 282 546 336.933 546.4L393.2 546.8L394 550.8C395.2 556 402.133 563.867 407.6 566.133C411.067 567.733 434 568 531.6 568C645.333 568 651.6 567.867 656.8 565.467C663.067 562.533 667.467 557.6 669.333 550.8C670.4 547.6 670.667 491.467 670.4 374.667C670 213.2 669.867 202.933 667.6 197.2C664.533 189.467 657.733 181.333 650.133 176.533C645.467 173.6 644.133 171.867 643.467 168C641.6 155.867 629.2 140.267 616.533 134.133C608.267 130 595.867 128 587.067 129.333C581.467 130.267 579.867 129.733 571.467 125.2C554.8 116.4 535.333 113.2 517.6 116.667ZM545.467 132.533C554.533 134.533 565.867 139.6 572 144.267C574.933 146.533 576.533 146.8 584 145.867C596.4 144.533 602.133 145.067 608.8 148.267C616 151.6 624.933 161.333 626.667 167.867C627.333 170.533 628.667 175.067 629.333 178C630.533 182.4 632.133 184.267 638.933 188.667C648.8 195.067 651.6 198.667 653.2 206.933L654.267 213.333H626.133C603.867 213.333 597.333 213.733 595.2 215.2C592.8 216.933 592.667 219.467 592 251.333L591.333 285.6L586.933 289.467C583.733 292.4 581.333 293.333 577.333 293.333C573.333 293.333 570.933 292.4 567.733 289.467L563.333 285.6L562.667 251.333C562 219.467 561.867 216.933 559.467 215.2C557.2 213.6 544.533 213.333 482.933 213.333H408.933L409.6 196C410.267 180.667 410.8 177.867 414 171.2C420.133 158.667 431.2 152.667 446 153.6C452.8 154 455.867 155.067 462.4 159.067C466.8 161.733 471.067 164 471.733 164C472.533 164 478.133 159.067 484.267 152.933C496.533 140.667 504.8 135.733 518.8 132.8C529.867 130.267 534.667 130.267 545.467 132.533ZM546.667 253.333V277.333H510.667C476.4 277.333 474.533 277.467 472 280C470.533 281.467 469.333 283.867 469.333 285.333C469.333 286.8 470.533 289.2 472 290.667C474.533 293.2 476.4 293.333 512.4 293.333H550L553.867 298.133C559.6 305.333 570.4 309.867 579.6 308.933C588 308 597.2 303.2 601.333 297.333L604.133 293.333H629.467H654.667V388V482.667H532H409.333V388V293.333H422C432.933 293.333 435.067 292.933 437.333 290.667C438.8 289.2 440 286.8 440 285.333C440 283.867 438.8 281.467 437.333 280C435.067 277.733 432.933 277.333 422 277.333H409.333V253.333V229.333H478H546.667V253.333ZM654.667 253.333V277.333H631.333H608V253.333V229.333H631.333H654.667V253.333ZM393.333 253.333V260H349.733C300.933 260 299.733 260.267 293.733 269.2C290.8 273.467 290.667 275.067 290.667 294.8V316H281.867H273.2L273.6 286.133C274 256.267 274 256.133 277.333 252.667C279.2 250.667 281.867 248.533 283.333 248C284.8 247.333 310.133 246.8 339.733 246.8L393.333 246.667V253.333ZM257.333 291.6L257.2 312.667L254.4 307.333C252.933 304.4 250.933 301.6 250.133 301.067C247.733 299.467 243.333 299.867 240.667 301.867C235.467 305.733 239.733 320.4 247.867 326.267C254.933 331.6 259.067 332 300.133 332C322.667 332 341.333 332.533 343.2 333.333C347.2 334.8 352 342 352 346.267C352 350.8 349.333 355.733 345.467 358.267C342.533 360.267 338.133 360.667 316.667 361.067C295.867 361.467 290.933 361.867 289.067 363.6C286 366.267 286 371.733 288.933 374.933C290.8 377.067 293.467 377.333 315.2 377.333C336.8 377.333 339.733 377.6 343.6 380C354.533 386.667 354.533 401.333 343.6 408C339.733 410.4 336.8 410.667 316 410.667C289.867 410.667 286.667 411.6 286.667 418.533C286.667 425.333 288.8 426 316.8 426.667L342.667 427.333L346.933 431.733C350.667 435.467 351.333 436.933 351.333 442.667C351.333 448.4 350.667 449.867 346.933 453.6L342.667 458L317.6 458.4C297.067 458.8 292.267 459.2 290.4 460.933C287.333 463.6 287.333 469.067 290.267 472.267C292.133 474.4 294.667 474.667 310.267 474.667C329.333 474.667 333.867 475.733 337.867 481.6C340.8 485.867 340.533 494.933 337.333 498.933C332.267 505.467 330.267 505.6 280.4 504.933C225.467 504.133 225.467 504.267 196.667 490C171.733 477.467 157.2 473.467 133.067 472.4L116 471.6V427.733C116 385.733 115.867 383.867 113.333 381.333C111.867 379.867 109.467 378.667 108 378.667C106.533 378.667 104.133 379.867 102.667 381.333C100.133 383.867 100 385.733 100 441.333V498.667H64H28V397.333V296H64H100V320.667C100 343.6 100.133 345.467 102.667 348C104.133 349.467 106.533 350.667 108 350.667C113.333 350.667 116 346 116 336.667V328H126.4C139.067 328 149.067 325.467 161.333 319.333C171.467 314.133 174.4 310.8 178.133 299.333C181.333 289.733 185.867 281.2 189.733 277.6C196 271.733 201.467 270.8 230.4 270.667H257.333V291.6ZM328.667 278.933C326.267 286.8 320.533 295.067 315.333 298.133C312.267 299.867 309.067 301.333 308.267 301.333C306.533 301.333 305.867 278.533 307.6 276.933C308 276.4 313.2 276 318.933 276C329.333 276 329.467 276 328.667 278.933ZM393.333 388.667V501.333H374H354.667L355.6 497.6C357.333 491.467 356.4 481.867 353.2 475.867C351.467 472.267 350.933 469.867 351.733 469.6C355.067 468.533 360.267 463.467 363.333 458C369.867 446.933 368.933 432.933 360.8 422.4L357.467 418L361.333 412.933C366 406.667 368.667 396.4 367.467 389.067C366.533 383.067 362.533 374.667 359.6 372.133C357.867 370.8 358.133 369.6 362 363.867C368.933 353.733 369.6 343.067 364 332C358.133 320.667 348.667 316.133 330 315.867C322.667 315.867 317.6 315.467 318.667 315.067C329.2 311.067 339.733 298 343.467 284.267L345.733 276H369.6H393.333V388.667ZM654.667 522.933C654.667 543.6 654.4 547.467 652.4 549.6C650.4 551.867 644.933 552 532.267 552C424.267 552 414 551.867 411.733 549.733C409.6 547.867 409.333 545.067 409.333 523.067V498.667H532H654.667V522.933ZM393.333 524V530.667H339.467C286 530.667 285.733 530.667 281.333 527.6C272.533 521.733 273.733 521.333 302.933 521.2C322 521.2 331.333 520.667 334.667 519.467C337.867 518.133 347.467 517.6 366.4 517.467L393.333 517.333V524Z" stroke="#441901" stroke-width="2" mask="url(#path-1-outside-1_70_111)"/>
<path d="M448.001 324.933C442.934 326.933 438.134 331.6 435.867 336.533C433.601 341.6 433.334 346.133 433.334 393.333C433.334 444 433.334 444.8 436.401 450.667C444.401 466.533 467.201 466.667 475.601 450.8C478.667 444.933 478.667 444.8 478.667 393.467C478.667 346.133 478.401 341.6 476.134 336.533C472.667 328.8 466.534 324.933 457.467 324.4C453.334 324.267 449.067 324.4 448.001 324.933ZM461.067 341.6C463.201 343.733 463.334 440.133 461.334 444.133C460.401 445.733 458.534 446.667 456.001 446.667C453.467 446.667 451.601 445.733 450.667 444.133C448.667 440.133 448.801 343.733 450.934 341.6C451.867 340.667 454.134 340 456.001 340C457.867 340 460.134 340.667 461.067 341.6Z" fill="#441901"/>
<path d="M524.001 324.933C518.934 326.933 514.134 331.6 511.867 336.533C509.601 341.6 509.334 346.133 509.334 393.333C509.334 444 509.334 444.8 512.401 450.667C520.401 466.533 543.201 466.667 551.601 450.8C554.667 444.933 554.667 444.8 554.667 393.467C554.667 346.133 554.401 341.6 552.134 336.533C548.667 328.8 542.534 324.933 533.467 324.4C529.334 324.267 525.067 324.4 524.001 324.933ZM537.067 341.6C539.201 343.733 539.334 440.133 537.334 444.133C536.401 445.733 534.534 446.667 532.001 446.667C529.467 446.667 527.601 445.733 526.667 444.133C524.667 440.133 524.801 343.733 526.934 341.6C527.867 340.667 530.134 340 532.001 340C533.867 340 536.134 340.667 537.067 341.6Z" fill="#441901"/>
<path d="M600.001 324.933C594.934 326.933 590.134 331.6 587.867 336.533C585.601 341.6 585.334 346.133 585.334 393.333C585.334 444 585.334 444.8 588.401 450.667C596.401 466.533 619.201 466.667 627.601 450.8C630.667 444.933 630.667 444.8 630.667 393.467C630.667 346.133 630.401 341.6 628.134 336.533C624.667 328.8 618.534 324.933 609.467 324.4C605.334 324.267 601.067 324.4 600.001 324.933ZM613.067 341.6C615.201 343.733 615.334 440.133 613.334 444.133C612.401 445.733 610.534 446.667 608.001 446.667C605.467 446.667 603.601 445.733 602.667 444.133C600.667 440.133 600.801 343.733 602.934 341.6C603.867 340.667 606.134 340 608.001 340C609.867 340 612.134 340.667 613.067 341.6Z" fill="#441901"/>
<path d="M132.533 443.333C130.399 446.533 130.399 447.333 132.133 450.4C134.266 454.267 136.399 454.933 152.666 457.333C167.866 459.6 184.933 465.6 202.399 474.933C217.733 483.067 227.733 486.667 235.599 486.667C246.399 486.667 246.933 473.6 236.266 471.2C227.466 469.333 219.466 466.267 211.733 461.733C192.399 450.4 166.399 441.867 146.533 440.4C135.066 439.6 134.933 439.6 132.533 443.333Z" fill="#441901"/>
<path d="M254.133 475.467C250.933 478.533 251.466 484.8 254.933 487.2C256.533 488.4 260.666 489.333 263.999 489.333C267.333 489.333 271.466 488.4 273.066 487.2C276.666 484.667 276.933 478.667 273.599 475.6C270.266 472.533 257.066 472.533 254.133 475.467Z" fill="#441901"/>
</svg>
