<svg width="80" height="80" viewBox="0 0 500 500" fill="none" xmlns="http://www.w3.org/2000/svg">
<path d="M121.772 121.706C121.772 121.706 344.617 123.198 489 123.198M121.772 121.706L93.9557 77.2368C91.3482 73.0683 86.1212 71.427 81.6893 73.5562C73.6036 77.4407 60.0736 84.3913 45.4287 93.8313C23.3851 108.041 10.3344 132.403 13.7881 158.401C24.4357 238.551 82.3881 380.989 181.034 417.742C189.694 420.969 199.198 421.226 208.034 418.516C234.17 410.5 254.962 396.574 264.822 389.172C268.556 386.369 269.472 381.303 267.246 377.199L263.771 370.791M121.772 121.706L135.722 148.032C137.983 152.299 136.693 157.582 132.72 160.327V160.327M489 123.198C489 220.471 488.005 370.791 488.005 370.791M489 123.198L362.61 244.073M488.005 370.791H278.515H263.771M488.005 370.791L362.61 244.073M132.72 160.327L97.8488 184.42C94.8102 186.519 93.1754 190.095 93.7169 193.749C95.8786 208.333 102.632 246.407 116.797 268.373C129.814 288.559 158.319 309.452 169.693 317.32C172.661 319.374 176.495 319.538 179.691 317.859L214.049 299.81C218.892 297.265 224.882 299.086 227.49 303.895L263.771 370.791M132.72 160.327L222.785 247.492M362.61 244.073L306.538 297.698C298.082 305.785 284.775 305.838 276.254 297.818L222.785 247.492M222.785 247.492L160.088 308.147" stroke="#441901" stroke-width="18"/>
</svg>
