<svg width="1156" height="1089" viewBox="0 0 1156 1089" fill="none" xmlns="http://www.w3.org/2000/svg">
<path d="M1005.97 754.932C1005.97 754.932 1027.81 715.198 1030.93 662.958C1030.93 662.958 996.515 723.198 942.195 728.572C942.195 728.572 1034.87 636.078 1069.74 537.665C1069.74 537.665 1088.02 678.025 1005.97 754.932V754.932ZM770.102 984.558C770.102 984.558 878.728 968.958 939.502 914.105C939.502 914.105 800.755 968.958 705.302 963.318C705.302 963.318 800.222 917.332 914.768 882.918C1029.31 848.505 1065.89 796.878 1065.89 796.878C1065.89 796.878 993.288 989.398 770.102 984.558V984.558ZM629.475 946.385C629.475 946.385 636.728 904.025 710.542 843.118C784.355 782.212 788.795 733.012 788.795 733.012C788.795 733.012 761.768 773.745 695.208 806.825C628.662 839.892 618.182 890.718 618.182 890.718C618.182 890.718 614.142 835.865 711.755 764.878C809.355 693.892 827.102 642.265 827.102 642.265C827.102 642.265 855.608 775.905 749.128 845.278C642.648 914.652 629.475 946.385 629.475 946.385V946.385ZM577.835 547.345C577.835 547.345 539.928 629.078 533.475 703.292C533.475 703.292 464.102 569.652 577.835 428.492C691.582 569.652 622.208 703.292 622.208 703.292C615.755 629.078 577.835 547.345 577.835 547.345ZM537.502 890.718C537.502 890.718 527.022 839.892 460.475 806.825C393.915 773.745 366.895 733.012 366.895 733.012C366.895 733.012 371.331 782.212 445.142 843.118C518.955 904.025 526.208 946.385 526.208 946.385C526.208 946.385 513.035 914.652 406.555 845.278C300.074 775.905 328.576 642.265 328.576 642.265C328.576 642.265 346.324 693.892 443.928 764.878C541.542 835.865 537.502 890.718 537.502 890.718V890.718ZM216.179 914.105C276.95 968.958 385.582 984.558 385.582 984.558C162.4 989.398 89.7989 796.878 89.7989 796.878C89.7989 796.878 126.368 848.505 240.918 882.918C355.467 917.332 450.382 963.318 450.382 963.318C354.928 968.958 216.179 914.105 216.179 914.105V914.105ZM85.9456 537.665C120.812 636.078 213.491 728.572 213.491 728.572C159.174 723.198 124.755 662.958 124.755 662.958C127.875 715.198 149.718 754.932 149.718 754.932C67.6603 678.025 85.9456 537.665 85.9456 537.665V537.665ZM279.37 423.652C279.37 423.652 371.331 466.398 425.382 615.638C425.382 615.638 417.315 646.292 425.382 675.332C425.382 675.332 351.971 657.585 318.896 518.025C318.896 518.025 274.53 549.492 276.143 622.905C276.143 622.905 228.548 522.865 279.37 423.652V423.652ZM415.702 283.825C415.702 283.825 473.622 327.625 503.355 415.038C503.355 415.038 477.542 449.465 472.168 465.052C472.168 465.052 449.035 381.705 416.235 346.212C416.235 346.212 419.462 395.145 401.715 439.238C401.715 439.238 380.742 415.038 353.315 392.998C353.315 392.998 370.524 317.705 415.702 283.825V283.825ZM577.835 88.065C626.515 118.185 667.382 228.972 667.382 228.972C637.262 253.705 614.142 315.012 614.142 315.012C618.982 256.398 577.835 161.745 577.835 161.745C577.835 161.745 536.702 256.398 541.542 315.012C541.542 315.012 518.422 253.705 488.302 228.972C488.302 228.972 529.168 118.185 577.835 88.065V88.065ZM739.982 283.825C785.155 317.705 802.368 392.998 802.368 392.998C774.942 415.038 753.968 439.238 753.968 439.238C736.222 395.145 739.448 346.212 739.448 346.212C706.648 381.705 683.515 465.052 683.515 465.052C678.142 449.465 652.328 415.038 652.328 415.038C682.062 327.625 739.982 283.825 739.982 283.825V283.825ZM876.315 423.652C927.128 522.865 879.542 622.905 879.542 622.905C881.155 549.492 836.782 518.025 836.782 518.025C803.715 657.585 730.302 675.332 730.302 675.332C738.368 646.292 730.302 615.638 730.302 615.638C784.355 466.398 876.315 423.652 876.315 423.652V423.652ZM1077.18 400.252C1048.94 499.478 977.955 549.492 977.955 549.492C994.088 414.772 929.555 327.652 929.555 327.652C896.475 330.878 869.862 344.598 869.862 344.598C834.368 234.878 752.888 165.505 752.888 165.505C742.408 168.732 730.302 182.452 730.302 182.452C682.715 59.8384 577.835 0.945182 577.835 0.945182C577.835 0.945182 472.968 59.8384 425.382 182.452C425.382 182.452 413.275 168.732 402.795 165.505C402.795 165.505 321.316 234.878 285.823 344.598C285.823 344.598 259.202 330.878 226.128 327.652C226.128 327.652 161.594 414.772 177.727 549.492C177.727 549.492 106.74 499.478 78.5056 400.252C78.5056 400.252 -62.3944 558.092 33.331 829.145C33.331 829.145 116.735 1120.62 537.528 1038.88L577.835 1088.36L618.155 1038.88C1038.95 1120.62 1122.35 829.145 1122.35 829.145C1218.07 558.092 1077.18 400.252 1077.18 400.252Z" fill="#D96704"/>
</svg>
