<svg width="187" height="200" viewBox="0 0 1675 1792" fill="none" xmlns="http://www.w3.org/2000/svg">
<path d="M1294.84 923.933C1294.84 923.933 1316.68 884.199 1319.8 831.959C1319.8 831.959 1285.38 892.199 1231.06 897.573C1231.06 897.573 1323.74 805.079 1358.61 706.666C1358.61 706.666 1376.89 847.026 1294.84 923.933V923.933ZM1058.97 1153.56C1058.97 1153.56 1167.6 1137.96 1228.37 1083.11C1228.37 1083.11 1089.62 1137.96 994.17 1132.32C994.17 1132.32 1089.09 1086.33 1203.64 1051.92C1318.18 1017.51 1354.76 965.879 1354.76 965.879C1354.76 965.879 1282.16 1158.4 1058.97 1153.56V1153.56ZM918.344 1115.39C918.344 1115.39 925.597 1073.03 999.41 1012.12C1073.22 951.213 1077.66 902.013 1077.66 902.013C1077.66 902.013 1050.64 942.746 984.077 975.826C917.53 1008.89 907.05 1059.72 907.05 1059.72C907.05 1059.72 903.011 1004.87 1000.62 933.879C1098.22 862.893 1115.97 811.266 1115.97 811.266C1115.97 811.266 1144.48 944.906 1038 1014.28C931.517 1083.65 918.344 1115.39 918.344 1115.39V1115.39ZM866.704 716.346C866.704 716.346 828.797 798.079 822.344 872.293C822.344 872.293 752.97 738.653 866.704 597.493C980.45 738.653 911.077 872.293 911.077 872.293C904.624 798.079 866.704 716.346 866.704 716.346ZM826.37 1059.72C826.37 1059.72 815.89 1008.89 749.344 975.826C682.784 942.746 655.764 902.013 655.764 902.013C655.764 902.013 660.2 951.213 734.01 1012.12C807.824 1073.03 815.077 1115.39 815.077 1115.39C815.077 1115.39 801.904 1083.65 695.424 1014.28C588.943 944.906 617.445 811.266 617.445 811.266C617.445 811.266 635.193 862.893 732.797 933.879C830.41 1004.87 826.37 1059.72 826.37 1059.72V1059.72ZM505.048 1083.11C565.819 1137.96 674.45 1153.56 674.45 1153.56C451.269 1158.4 378.668 965.879 378.668 965.879C378.668 965.879 415.237 1017.51 529.787 1051.92C644.336 1086.33 739.25 1132.32 739.25 1132.32C643.797 1137.96 505.048 1083.11 505.048 1083.11V1083.11ZM374.815 706.666C409.681 805.079 502.36 897.573 502.36 897.573C448.042 892.199 413.624 831.959 413.624 831.959C416.744 884.199 438.587 923.933 438.587 923.933C356.529 847.026 374.815 706.666 374.815 706.666V706.666ZM568.238 592.653C568.238 592.653 660.2 635.399 714.25 784.639C714.25 784.639 706.184 815.293 714.25 844.333C714.25 844.333 640.84 826.586 607.765 687.026C607.765 687.026 563.398 718.493 565.012 791.906C565.012 791.906 517.417 691.866 568.238 592.653V592.653ZM704.57 452.826C704.57 452.826 762.491 496.626 792.224 584.039C792.224 584.039 766.41 618.466 761.037 634.053C761.037 634.053 737.904 550.706 705.104 515.213C705.104 515.213 708.33 564.146 690.584 608.239C690.584 608.239 669.61 584.039 642.184 561.999C642.184 561.999 659.393 486.706 704.57 452.826V452.826ZM866.704 257.066C915.384 287.186 956.25 397.973 956.25 397.973C926.13 422.706 903.01 484.013 903.01 484.013C907.85 425.399 866.704 330.746 866.704 330.746C866.704 330.746 825.57 425.399 830.41 484.013C830.41 484.013 807.29 422.706 777.17 397.973C777.17 397.973 818.037 287.186 866.704 257.066V257.066ZM1028.85 452.826C1074.02 486.706 1091.24 561.999 1091.24 561.999C1063.81 584.039 1042.84 608.239 1042.84 608.239C1025.09 564.146 1028.32 515.213 1028.32 515.213C995.517 550.706 972.384 634.053 972.384 634.053C967.01 618.466 941.197 584.039 941.197 584.039C970.931 496.626 1028.85 452.826 1028.85 452.826V452.826ZM1165.18 592.653C1216 691.866 1168.41 791.906 1168.41 791.906C1170.02 718.493 1125.65 687.026 1125.65 687.026C1092.58 826.586 1019.17 844.333 1019.17 844.333C1027.24 815.293 1019.17 784.639 1019.17 784.639C1073.22 635.399 1165.18 592.653 1165.18 592.653V592.653ZM1366.05 569.253C1337.81 668.479 1266.82 718.493 1266.82 718.493C1282.96 583.773 1218.42 496.653 1218.42 496.653C1185.34 499.879 1158.73 513.599 1158.73 513.599C1123.24 403.879 1041.76 334.506 1041.76 334.506C1031.28 337.733 1019.17 351.453 1019.17 351.453C971.584 228.839 866.704 169.946 866.704 169.946C866.704 169.946 761.837 228.839 714.25 351.453C714.25 351.453 702.144 337.733 691.664 334.506C691.664 334.506 610.185 403.879 574.692 513.599C574.692 513.599 548.071 499.879 514.997 496.653C514.997 496.653 450.463 583.773 466.596 718.493C466.596 718.493 395.609 668.479 367.374 569.253C367.374 569.253 226.475 727.093 322.2 998.146C322.2 998.146 405.604 1289.63 826.397 1207.88L866.704 1257.36L907.024 1207.88C1327.82 1289.63 1411.22 998.146 1411.22 998.146C1506.94 727.093 1366.05 569.253 1366.05 569.253Z" fill="#441901"/>
<path d="M1332.7 527.039C1361.81 527.039 1385.41 503.439 1385.41 474.332C1385.41 445.226 1361.81 421.626 1332.7 421.626C1303.6 421.626 1280 445.226 1280 474.332C1280 503.439 1303.6 527.039 1332.7 527.039Z" fill="#441901"/>
<path d="M1119.44 252.772C1148.54 252.772 1172.14 229.172 1172.14 200.066C1172.14 170.959 1148.54 147.359 1119.44 147.359C1090.33 147.359 1066.74 170.959 1066.74 200.066C1066.74 229.172 1090.33 252.772 1119.44 252.772Z" fill="#441901"/>
<path d="M400.717 527.039C429.824 527.039 453.42 503.439 453.42 474.332C453.42 445.226 429.824 421.626 400.717 421.626C371.611 421.626 348.015 445.226 348.015 474.332C348.015 503.439 371.611 527.039 400.717 527.039Z" fill="#441901"/>
<path d="M613.98 252.772C643.088 252.772 666.677 229.172 666.677 200.066C666.677 170.959 643.088 147.359 613.98 147.359C584.873 147.359 561.277 170.959 561.277 200.066C561.277 229.172 584.873 252.772 613.98 252.772Z" fill="#441901"/>
<path d="M866.704 105.413C895.824 105.413 919.411 81.813 919.411 52.7063C919.411 23.5996 895.824 -0.000461227 866.704 -0.000461227C837.597 -0.000461227 814.01 23.5996 814.01 52.7063C814.01 81.813 837.597 105.413 866.704 105.413Z" fill="#441901"/>
<path d="M70.3066 1603.43H97.6799C114.68 1603.43 123.179 1594.16 123.179 1575.61C123.179 1555.55 114.295 1545.51 96.5266 1545.51H70.3066V1603.43ZM70.3066 1503.59H96.5266C104.209 1503.59 109.948 1501.52 113.743 1497.39C117.536 1493.27 119.433 1487.07 119.433 1478.81C119.433 1469.01 117.608 1461.93 113.959 1457.56C110.308 1453.19 104.497 1451 96.5266 1451H70.3066V1503.59ZM0 1645.49C8.356 1637.13 12.5346 1597.76 12.5346 1527.36C12.5346 1456.96 8.356 1417.57 0 1409.21H12.5346V1408.93H94.9413C150.744 1408.93 178.647 1430.07 178.647 1472.32C178.647 1503.53 169.713 1520.92 151.849 1524.47C159.435 1526.29 166.423 1531.99 172.811 1541.55C179.197 1551.11 182.392 1563.95 182.392 1580.08C182.392 1623.69 154.443 1645.49 98.5426 1645.49H0" fill="#441901"/>
<path d="M319.809 1466.7V1515.01H343.896C350.955 1515.01 356.225 1513.12 359.711 1509.32C363.196 1505.53 364.94 1499.84 364.94 1492.25C364.94 1483.25 363.261 1476.74 359.909 1472.73C356.555 1468.7 351.217 1466.7 343.896 1466.7H319.809ZM350.38 1645.37C359.732 1636.02 364.409 1622.76 364.409 1605.61C364.409 1588.44 364.409 1575.48 364.409 1566.69C364.409 1557.92 357.571 1553.53 343.896 1553.53H319.809V1645.37H255.223C262.899 1637.69 266.737 1601.52 266.737 1536.85C266.737 1472.17 262.899 1435.86 255.223 1427.93L342.44 1428.06C393.701 1428.06 419.335 1447.48 419.335 1486.29C419.335 1500.5 417.017 1511.68 412.385 1519.84C407.753 1528 401.864 1532.8 394.717 1534.2C407.245 1538.36 413.511 1546.66 413.511 1559.14C413.511 1571.64 413.511 1586.81 413.511 1604.68C413.511 1622.54 418.143 1636.1 427.407 1645.37H350.38" fill="#441901"/>
<path d="M628.256 1538.04H628.389V1557.89C619.74 1553.65 608.515 1551.54 594.707 1551.54C580.897 1551.54 569.316 1551.54 559.965 1551.54V1605.54C563.581 1605.54 574.237 1605.54 591.928 1605.54C609.617 1605.54 623.005 1601 632.095 1591.9V1645.37H494.851C502.527 1637.69 506.364 1601.52 506.364 1536.85C506.364 1472.17 502.527 1435.92 494.851 1428.06H632.095V1479.94C623.271 1471.12 609.837 1466.7 591.795 1466.7C573.749 1466.7 563.141 1466.7 559.965 1466.7V1513.16C569.316 1513.16 580.876 1513.16 594.64 1513.16C608.404 1513.16 619.655 1511 628.389 1506.68V1526.53H628.256V1538.04" fill="#441901"/>
<path d="M844.731 1645.37C849.051 1641.05 851.211 1633.68 851.211 1623.28C851.211 1614.89 848.891 1600.7 844.264 1580.72C839.624 1560.73 834.837 1540.02 829.904 1518.58L821.824 1549.54C812.651 1584.66 808.064 1610.34 808.064 1626.58C808.064 1636.02 809.611 1642.29 812.691 1645.37H743.877C746.171 1643.08 747.317 1637.92 747.317 1629.89C747.317 1612.86 740.877 1577.94 727.997 1525.14C715.104 1472.33 702.757 1439.93 690.931 1427.93H770.211C765.531 1432.96 763.197 1440.62 763.197 1450.96C763.197 1457.93 765.077 1469.7 768.824 1486.29C772.571 1502.88 776.171 1520.3 779.611 1538.57L807.531 1428.06H852.664L880.464 1537.64C883.717 1520.53 888.131 1500.05 893.691 1476.24C895.891 1466.62 896.997 1458.28 896.997 1451.22C896.997 1440.81 894.531 1433.04 889.584 1427.93H968.864C957.304 1439.84 943.677 1477.08 927.971 1539.62C917.464 1581.28 912.224 1610.78 912.224 1628.17C912.224 1636.98 913.544 1642.73 916.197 1645.37H844.731" fill="#441901"/>
<path d="M1159.92 1538.04H1160.05V1557.89C1151.41 1553.65 1140.18 1551.54 1126.37 1551.54C1112.56 1551.54 1100.98 1551.54 1091.64 1551.54V1605.54C1095.25 1605.54 1105.9 1605.54 1123.6 1605.54C1141.28 1605.54 1154.68 1601 1163.76 1591.9V1645.37H1026.52C1034.2 1637.69 1038.02 1601.52 1038.02 1536.85C1038.02 1472.17 1034.2 1435.92 1026.52 1428.06H1163.76V1479.94C1154.93 1471.12 1141.5 1466.7 1123.46 1466.7C1105.41 1466.7 1094.81 1466.7 1091.64 1466.7V1513.16C1100.98 1513.16 1112.54 1513.16 1126.3 1513.16C1140.08 1513.16 1151.32 1511 1160.05 1506.68V1526.53H1159.92V1538.04" fill="#441901"/>
<path d="M1295.78 1466.7V1515.01H1319.88C1326.93 1515.01 1332.21 1513.12 1335.69 1509.32C1339.17 1505.53 1340.92 1499.84 1340.92 1492.25C1340.92 1483.25 1339.24 1476.74 1335.89 1472.73C1332.53 1468.7 1327.2 1466.7 1319.88 1466.7H1295.78ZM1326.36 1645.37C1335.72 1636.02 1340.4 1622.76 1340.4 1605.61C1340.4 1588.44 1340.4 1575.48 1340.4 1566.69C1340.4 1557.92 1333.56 1553.53 1319.88 1553.53H1295.78V1645.37H1231.21C1238.88 1637.69 1242.72 1601.52 1242.72 1536.85C1242.72 1472.17 1238.88 1435.86 1231.21 1427.93L1318.42 1428.06C1369.68 1428.06 1395.32 1447.48 1395.32 1486.29C1395.32 1500.5 1393 1511.68 1388.37 1519.84C1383.73 1528 1377.85 1532.8 1370.7 1534.2C1383.22 1538.36 1389.49 1546.66 1389.49 1559.14C1389.49 1571.64 1389.49 1586.81 1389.49 1604.68C1389.49 1622.54 1394.12 1636.1 1403.38 1645.37H1326.36" fill="#441901"/>
<path d="M1604.4 1543.2V1548.83C1604.4 1604.72 1608.66 1636.95 1617.21 1645.49H1530.77C1538.08 1638.2 1541.72 1606.45 1541.72 1550.27V1541.76C1541.44 1535.71 1535.05 1518.19 1522.56 1489.17C1507.68 1454.51 1490.58 1427.71 1471.28 1408.79L1553.54 1408.93C1550.08 1412.39 1548.34 1417.43 1548.34 1424.07C1548.34 1431.93 1551.76 1443.47 1558.58 1458.64C1565.4 1473.81 1570.2 1484.71 1572.98 1491.33C1575.68 1484.71 1581.44 1472.37 1590.28 1454.31C1595.08 1442.03 1597.48 1431.93 1597.48 1424.07C1597.48 1417.43 1595.74 1412.39 1592.29 1408.93L1674.26 1408.79C1655.16 1427.71 1638.16 1454.51 1623.26 1489.17C1610.78 1518.19 1604.49 1536.19 1604.4 1543.2Z" fill="#441901"/>
</svg>
