<svg width="85" height="70" viewBox="0 0 579 476" fill="none" xmlns="http://www.w3.org/2000/svg">
<path d="M363.911 407.131L288.843 425.869C287.415 426.225 285.926 426.262 284.482 425.976L147.897 398.983C146.492 398.706 145.044 398.733 143.65 399.064L21.3078 428.081C15.0262 429.571 9 424.807 9 418.351V53.6809C9 49.1645 12.0272 45.2087 16.3866 44.0284L143.19 9.69713C144.877 9.24036 146.654 9.23376 148.345 9.67797L284.126 45.3586C285.796 45.7976 287.552 45.7964 289.222 45.3553L424.303 9.66772C425.96 9.22993 427.702 9.2254 429.361 9.65455L562.504 44.0896C566.917 45.231 570 49.2125 570 53.771V417.976C570 424.549 563.767 429.334 557.418 427.636L480.707 407.131" stroke="#441901" stroke-width="18"/>
<path fill-rule="evenodd" clip-rule="evenodd" d="M329.083 309.15C328.365 331.182 337.662 352.004 350.147 370.172C383.868 419.239 422.877 476 422.877 476L497.905 369.408C510.355 351.72 520.008 331.544 520 309.914C519.964 213 422.877 213 422.877 213C422.877 213 332.216 213 329.083 309.15ZM472.366 354.77C497.01 328.039 495.604 286.455 469.232 261.426V261.426C443.345 236.856 402.661 237.081 377.069 261.958V261.958C351.441 286.87 350.1 327.6 374.011 354.164V354.164C400.221 383.281 445.811 383.573 472.366 354.77V354.77Z" fill="#441901"/>
<path d="M445.255 304.181C440.57 303.605 436.47 301.878 433.542 298.423C430.614 294.967 428.271 290.937 427.685 286.906C425.343 286.33 423.586 285.178 421.829 283.45C419.486 280.571 418.315 277.692 417.729 274.813L412.458 279.995L407.773 275.964C404.259 271.933 397.816 271.933 393.717 275.964L379.075 290.361C374.975 294.392 374.975 300.726 379.075 304.757L383.174 309.364L379.66 312.819C375.561 316.85 375.561 323.184 379.66 327.215L404.844 351.977C408.944 356.008 415.386 356.008 418.9 351.977L456.383 314.546C453.455 313.971 450.526 312.819 448.184 310.515C447.598 308.212 446.427 305.909 445.255 304.181V304.181ZM385.517 294.392L397.231 282.875C398.988 281.147 401.916 281.147 403.087 282.875L406.016 285.754L389.031 303.605L385.517 300.15C384.346 298.423 384.346 296.119 385.517 294.392V294.392ZM389.031 321.457C387.274 319.729 387.274 317.426 389.031 316.274L414.215 290.937C415.972 289.209 418.315 289.209 419.486 290.937C421.243 292.664 421.243 294.967 419.486 296.119L394.302 320.881C392.545 322.608 390.202 322.608 389.031 321.457V321.457ZM399.573 331.822C397.816 330.094 397.816 327.791 399.573 326.639L424.757 301.878C426.514 300.15 428.857 300.15 430.028 301.878C431.785 303.605 431.785 305.909 430.028 307.06L404.844 331.822C403.673 333.55 401.33 333.55 399.573 331.822V331.822ZM441.156 317.426L415.972 342.763C414.215 344.491 411.872 344.491 410.701 342.763C408.944 341.036 408.944 338.732 410.701 337.58L435.885 312.819C437.642 311.091 439.984 311.091 441.156 312.819C442.327 313.395 442.327 316.274 441.156 317.426V317.426ZM466.925 292.088C465.754 290.937 463.997 289.785 462.826 289.785C465.168 284.026 463.997 277.116 459.312 273.085C454.626 268.478 448.184 267.327 442.327 269.63C441.741 267.902 440.57 266.175 439.399 265.023C435.299 260.992 428.857 260.992 425.343 265.023C421.243 269.054 421.243 275.389 425.343 279.42C427.1 281.147 430.028 282.299 432.371 282.299C431.785 286.906 433.542 291.512 437.056 294.967C440.57 298.423 445.255 299.574 449.941 299.574C449.941 302.454 451.112 304.757 452.869 306.485C456.969 310.515 463.411 310.515 466.925 306.485C471.025 302.454 471.025 296.119 466.925 292.088V292.088Z" fill="#441901"/>
<line x1="148" y1="9" x2="148" y2="399" stroke="#441901" stroke-width="10"/>
<path d="M287 46L287 425" stroke="#441901" stroke-width="10" stroke-linecap="round"/>
<path d="M428 10L428 201" stroke="#441901" stroke-width="10" stroke-linecap="square"/>
</svg>
