<svg width="80" height="80" viewBox="0 0 683 683" fill="none" xmlns="http://www.w3.org/2000/svg">
<g clip-path="url(#clip0_70_119)">
<path d="M319.333 143.467C314.933 144.533 306.4 147.867 300.4 150.8C257.333 172.133 238.667 225.733 259.067 269.6C268.4 289.6 282.267 303.733 302 313.333C340.267 331.867 387.6 320.933 412.933 287.467C434.8 258.533 438 222.133 421.733 189.333C414.4 174.667 397.867 158.533 382.667 150.933C376.4 147.867 367.467 144.533 362.667 143.333C351.867 140.933 330 140.933 319.333 143.467Z" fill="#441901"/>
<path d="M81.3333 222.133C48 229.2 24 259.2 24 293.333C24 313.467 31.0667 330 45.8667 344.667C60.5333 359.333 76.4 365.733 97.3333 365.6C116.933 365.467 134.267 358.133 148.267 344C176.667 314.933 176.4 270.8 147.467 241.867C136.667 231.067 125.6 225.067 111.333 222C100 219.6 92.6667 219.6 81.3333 222.133Z" fill="#441901"/>
<path d="M570.667 222.133C556.8 225.067 545.867 231.2 535.333 241.867C524.4 252.933 519.6 261.2 516 275.467C512.667 288.533 512.667 298.133 516 311.2C524.133 343.067 552.267 365.333 584.8 365.6C606.667 365.733 622.133 359.467 637.333 344.133C648.133 333.2 653.2 324.533 656.8 310.4C659.733 299.2 658.8 279.467 654.933 268.667C646.267 245.067 625.6 227.2 600.667 222C589.333 219.6 582 219.6 570.667 222.133Z" fill="#441901"/>
<path d="M257.733 339.333C243.999 343.067 232.133 354 225.466 368.8L221.999 376.667L221.599 458.933L221.199 541.333H341.333H461.333V461.6C461.333 397.2 460.933 380.8 459.466 375.867C453.599 356.533 441.199 343.733 424.399 339.333C413.466 336.533 268.266 336.533 257.733 339.333Z" fill="#441901"/>
<path d="M33.2 378.667C18.8 381.2 7.2 391.6 2.66667 406.4C0.133333 414.4 0 418.8 0 478.133V541.333L96.4 541.067L192.667 540.667L193.067 481.333C193.333 442.933 192.933 418.933 192 413.467C189.333 398.133 182.133 387.867 169.6 381.733L162 378L100.667 377.733C66.9333 377.6 36.5333 378 33.2 378.667Z" fill="#441901"/>
<path d="M522.266 378.667C510.666 380.667 500.399 388.8 494.266 400.933C489.999 409.067 489.199 422.267 489.599 482L489.999 540.667L586.399 541.067L682.666 541.333V478.133C682.666 418.667 682.533 414.4 679.999 406.267C676.533 395.333 668.266 385.733 658.399 381.2L651.333 378L589.999 377.733C556.266 377.6 525.866 378 522.266 378.667Z" fill="#441901"/>
</g>
<defs>
<clipPath id="clip0_70_119">
<rect width="682.667" height="682.667" fill="none"/>
</clipPath>
</defs>
</svg>
